<svg width="71" height="60" viewBox="0 0 71 60" fill="none" xmlns="http://www.w3.org/2000/svg">
<path d="M59.8799 24C58.1561 19.8695 55.3798 16.263 51.8278 13.5398C48.2758 10.8165 44.0722 9.07175 39.6358 8.47928C35.1994 7.88681 30.6853 8.46735 26.5431 10.163C22.401 11.8587 18.7756 14.6103 16.0283 18.1437C13.2809 21.677 11.5075 25.8687 10.8848 30.3009C10.2621 34.7331 10.8119 39.2512 12.4793 43.4047C14.1467 47.5583 16.8735 51.2024 20.3881 53.9738C23.9026 56.7451 28.082 58.5471 32.5099 59.2C31.9299 57.11 31.3399 54.8 30.8199 52.35C32.3327 53.3313 33.9249 54.1842 35.5799 54.9C35.5799 54.9 35.6999 57.06 35.8599 59.47C37.6482 59.5008 39.4347 59.3433 41.1899 59C41.1446 58.7487 41.1446 58.4913 41.1899 58.24C41.4799 56.37 42.2799 53 42.4399 50.83C43.5932 49.7512 44.5716 48.4996 45.3399 47.12L45.2799 47.56C44.7299 51.82 43.5799 56.37 42.8799 57.63C42.6533 58.047 42.3744 58.4335 42.0499 58.78C45.6697 57.9308 49.0615 56.3045 51.9902 54.0139C54.9189 51.7233 57.3143 48.8232 59.0105 45.5145C60.7067 42.2059 61.663 38.568 61.8131 34.8529C61.9632 31.1379 61.3036 27.4347 59.8799 24ZM58.4099 27.79C57.9699 28.22 57.0599 28.51 56.9099 27.21C56.7599 25.91 56.7199 25 56.7199 25C56.7199 25 54.7899 21.57 54.0699 21.53C53.3499 21.49 48.2399 25 46.8899 26.53C45.7199 27.82 45.4899 27.73 45.4899 30C45.4899 31.71 45.7099 38.17 45.5899 43.11L37.4399 45.28C34.8783 46.0151 32.2732 46.5896 29.6399 47L28.6399 41.17H28.4999L25.9299 28C25.9299 28 22.1199 26.56 20.7199 26.17C20.0626 25.8824 19.3367 25.7889 18.6279 25.9005C17.9191 26.0121 17.2571 26.3242 16.7199 26.8C16.172 27.2798 15.7338 27.872 15.4352 28.5364C15.1367 29.2007 14.9848 29.9216 14.9899 30.65C15.2013 31.1148 15.3622 31.6009 15.4699 32.1C15.5199 32.58 14.2699 32.53 13.4699 32.53C12.6699 32.53 12.5499 31.09 13.1799 29.4C13.6714 28.1005 14.2806 26.8486 14.9999 25.66C15.541 24.5982 16.2388 23.6239 17.0699 22.77C17.0699 22.77 17.2099 22.43 18.3199 22.53C19.4299 22.63 25.5999 22.96 25.5999 22.96L25.6499 20.69C32.3563 19.764 39.12 19.3162 45.8899 19.35C45.8899 19.96 45.8899 20.57 45.8899 21.18C48.4542 20.0098 51.2153 19.3314 54.0299 19.18C54.1805 19.1762 54.3297 19.2098 54.4641 19.2779C54.5985 19.3459 54.7139 19.4463 54.7999 19.57C55.1399 20 57.2099 22.57 57.4499 22.94C58.1221 23.9007 58.7333 24.9026 59.2799 25.94C59.0926 26.5968 58.7987 27.2184 58.4099 27.78V27.79Z" fill="#FDC305"/>
<path d="M56.46 21.67C56.93 22.27 57.34 22.8 57.46 22.96C58.1322 23.9207 58.7434 24.9227 59.29 25.96C59.0997 26.5953 58.8094 27.1961 58.43 27.74C57.99 28.17 57.08 28.46 56.93 27.16C56.78 25.86 56.7199 25 56.7199 25C56.7199 25 54.7899 21.57 54.0699 21.53C53.3499 21.49 48.2399 25 46.8899 26.53C45.7199 27.82 45.4899 27.73 45.4899 30C45.4899 31.5 45.66 36.65 45.62 41.23C47.43 41.43 50.09 41.93 50.89 43.11C50.89 43.11 50.6 35.93 58.7 39.69C58.7 39.69 58.98 29.9 70.16 32.41C66.3594 27.9478 61.7004 24.2955 56.46 21.67Z" fill="#F06351"/>
<path d="M45.93 19.35C45.9707 13.8087 45.5021 8.27546 44.53 2.81998C44.53 2.81998 44.38 1.51998 43.66 2.57998C43.0659 3.8472 42.6616 5.19498 42.46 6.57998C38.1852 6.30569 33.8943 6.41949 29.64 6.91998C28.82 4.16998 27.42 2.91998 26.75 3.24998C26.08 3.57998 26 6.52998 26 6.52998L25.67 20.69C32.383 19.7631 39.1535 19.3153 45.93 19.35Z" fill="#F06351"/>
<path d="M45.35 47.1201C45.48 46.0501 45.55 44.6301 45.59 43.0601L37.44 45.2301C34.8795 45.9821 32.2743 46.5732 29.6399 47L30.75 52.0001C30.75 52.1101 30.75 52.2201 30.82 52.3301C32.3328 53.3114 33.925 54.1643 35.58 54.8801C37.9987 53.7239 40.3023 52.341 42.46 50.7501V50.8101C43.6081 49.7367 44.583 48.4919 45.35 47.1201Z" fill="#E55645"/>
<path d="M32 16.22C31.95 16.12 33 16.9 33.41 17.14C33.82 17.38 34.02 17.56 34.02 17.73C34.02 17.9 33.76 18.07 33.4 18.07C33.04 18.07 32.48 17.95 32.4 17.81C32.32 17.67 33 17.81 33.34 17.81H33.63C33.0144 17.3596 32.4656 16.8243 32 16.22Z" fill="black"/>
<path d="M39.5 16.33C39.5 16.33 38.5 17.61 38.41 17.67C38.32 17.73 38.24 18.01 38.6 17.96C39.0133 17.8983 39.4212 17.8047 39.82 17.68C39.93 17.62 39.89 17.48 39.7 17.5C39.51 17.52 39.02 17.55 38.7 17.61L39.55 16.34C39.55 16.34 39.58 16.22 39.5 16.33Z" fill="black"/>
<path d="M36.36 22.4399C36.8236 22.2357 37.2067 21.8842 37.45 21.4399C37.73 20.7799 37.45 20.5299 37.01 20.4399C36.4047 20.3295 35.78 20.4509 35.26 20.7799C34.87 21.1499 34.92 21.5099 35.26 21.7799C35.5978 22.0448 35.9673 22.2666 36.36 22.4399Z" fill="black"/>
<path d="M36 23.7C35.8852 23.9268 35.7292 24.1303 35.54 24.3C35.2552 24.5292 34.9051 24.6622 34.54 24.68C33.9894 24.7341 33.4389 24.5768 33 24.24C32.7984 24.1221 32.619 23.9698 32.47 23.79C32.3699 23.6811 32.247 23.5957 32.11 23.54C32.11 23.54 32.86 27.65 34.68 28.31C36.5 28.97 36.84 27.55 36.89 27.17C36.9509 26.0319 36.665 24.9021 36.07 23.93C36.07 23.63 36.05 23.83 36 23.7Z" fill="#F06351"/>
<path d="M34.3001 24.84C33.8321 24.7727 33.3826 24.6113 32.9787 24.3655C32.5748 24.1197 32.2249 23.7947 31.9501 23.41C31.9255 23.3824 31.9119 23.3468 31.9119 23.3099C31.9119 23.2731 31.9255 23.2375 31.9501 23.2099C31.9631 23.1966 31.9787 23.1861 31.9958 23.1789C32.013 23.1716 32.0314 23.1679 32.0501 23.1679C32.0687 23.1679 32.0871 23.1716 32.1043 23.1789C32.1215 23.1861 32.137 23.1966 32.1501 23.2099C32.3975 23.5571 32.7115 23.8517 33.0737 24.0766C33.4359 24.3014 33.8391 24.4522 34.2601 24.52C34.593 24.4949 34.9153 24.3912 35.2005 24.2174C35.4856 24.0435 35.7253 23.8045 35.9001 23.52L36.0401 23.33L36.1401 23.5499C36.1401 23.5499 36.5201 24.31 37.1401 24.35C37.7601 24.39 38.2001 23.9299 38.7701 23.0599C38.7913 23.0281 38.8243 23.006 38.8618 22.9985C38.8993 22.991 38.9382 22.9987 38.9701 23.02C39.0019 23.0412 39.024 23.0742 39.0315 23.1117C39.039 23.1492 39.0313 23.1881 39.0101 23.2199C38.3434 24.1999 37.7134 24.6699 37.1201 24.6299C36.8907 24.5996 36.6711 24.5182 36.4773 24.3919C36.2835 24.2656 36.1204 24.0975 36.0001 23.9C35.8044 24.1732 35.5503 24.3993 35.2562 24.5619C34.9621 24.7245 34.6355 24.8195 34.3001 24.84Z" fill="black"/>
<path d="M36.26 38.3C38.3311 38.3 40.01 36.6211 40.01 34.55C40.01 32.479 38.3311 30.8 36.26 30.8C34.1889 30.8 32.51 32.479 32.51 34.55C32.51 36.6211 34.1889 38.3 36.26 38.3Z" fill="#FDC305"/>
<path d="M41.23 31.5001L38.1 32.8101L39.25 27.1801L31.75 36.9401L34.88 35.6301L33.73 41.2701L41.23 31.5001ZM33.84 35.3301L38 29.9201L37.19 33.9201L39.19 33.1001L35 38.5201L35.81 34.5201L33.84 35.3301Z" fill="#111111"/>
<path d="M32.4401 33.86C33.0586 33.86 33.5601 33.3586 33.5601 32.74C33.5601 32.1214 33.0586 31.62 32.4401 31.62C31.8215 31.62 31.3201 32.1214 31.3201 32.74C31.3201 33.3586 31.8215 33.86 32.4401 33.86Z" fill="#111111"/>
<path d="M38.96 37.92C39.3963 37.92 39.75 37.5663 39.75 37.13C39.75 36.6937 39.3963 36.34 38.96 36.34C38.5237 36.34 38.17 36.6937 38.17 37.13C38.17 37.5663 38.5237 37.92 38.96 37.92Z" fill="#111111"/>
<path d="M39.9201 35.75C40.1134 35.75 40.2701 35.5934 40.2701 35.4001C40.2701 35.2068 40.1134 35.05 39.9201 35.05C39.7268 35.05 39.5701 35.2068 39.5701 35.4001C39.5701 35.5934 39.7268 35.75 39.9201 35.75Z" fill="#111111"/>
<path d="M45.88 21.16C44.0749 22.7872 42.3748 24.5274 40.79 26.37C39.2114 28.1992 37.43 29.8431 35.48 31.27C35.26 30.74 33.85 29.75 33.85 29.75C33.85 29.75 30.71 27.6 28.65 25.91C27.5364 24.9824 26.4873 23.9801 25.51 22.91L23.51 22.7999C26.397 27.0171 30.6266 30.1328 35.51 31.6399C36.37 31.4999 38.79 29.77 40.6 28.36C42.7414 26.5388 44.7467 24.5636 46.6 22.45C47.0981 21.8579 47.4844 21.1802 47.74 20.45C46.6 20.83 45.88 21.16 45.88 21.16Z" fill="#F06351"/>
<path d="M65.22 3.5L56.76 12.94L55.54 10.95L63.69 0L65.22 3.5Z" fill="#FDC305"/>
<path d="M62.65 17.26L68.19 13.15L67.41 9.41003L62.01 14.22L62.65 17.26Z" fill="#FDC305"/>
<path d="M59.92 49.37L66.05 52.55L69.06 50.21L62.37 47.46L59.92 49.37Z" fill="#FDC305"/>
<path d="M1.94995 5.96999L5.01995 2.60999L14.31 11.61L13.09 13.89L1.94995 5.96999Z" fill="#FDC305"/>
<path d="M7.38003 16.28L2.68003 13.15L0.280029 17.02L5.43003 19.42L7.38003 16.28Z" fill="#FDC305"/>
<path d="M13.91 52.55L9.35999 55.9001L12.16 59.48L16.18 55.46L13.91 52.55Z" fill="#FDC305"/>
<path d="M25.9299 28C25.9299 28 22.1199 26.56 20.7199 26.17C20.0626 25.8824 19.3367 25.7889 18.6279 25.9005C17.9191 26.0121 17.2571 26.3242 16.7199 26.8C16.172 27.2798 15.7338 27.872 15.4352 28.5364C15.1367 29.2007 14.9848 29.9216 14.9899 30.65C15.2013 31.1148 15.3622 31.6009 15.4699 32.1C15.5199 32.58 14.2699 32.53 13.4699 32.53C12.6699 32.53 12.5499 31.09 13.1799 29.4C13.6714 28.1005 14.2806 26.8486 14.9999 25.66C9.54994 28.5 0 35.06 0 35.06C2.73169 34.8953 5.47264 34.9756 8.19 35.3C13.44 35.83 13.19 39.97 13.19 39.97C15.0366 39.461 16.9184 39.0899 18.82 38.86C20.94 38.72 21.09 40.98 21.09 40.98L21.62 44.84C22.4248 43.9693 23.3123 43.1789 24.27 42.48C25.5045 41.4918 27.0763 41.0253 28.65 41.18L25.9299 28Z" fill="#F06351"/>
</svg>
