<svg width="102" height="19" viewBox="0 0 102 19" fill="none" xmlns="http://www.w3.org/2000/svg">
<path d="M1.22376 17.1264C0.336377 15.8 -0.0879214 14.2133 0.0178147 12.6167V6.09984C-0.0941238 4.49147 0.32376 2.89084 1.20652 1.54672C2.00474 0.509812 3.3686 -0.00574451 5.29811 4.82733e-05C7.22761 0.00584105 8.53405 0.460574 9.21741 1.36425C10.0507 2.4841 10.4572 3.86871 10.3631 5.26568V6.79498H6.79692V5.13535C6.79211 4.69867 6.75468 4.26297 6.68494 3.83197C6.64182 3.51996 6.4998 3.23038 6.28009 3.0065C6.14445 2.88917 5.98699 2.8003 5.8169 2.7451C5.6468 2.68989 5.4675 2.66946 5.28949 2.685C5.03384 2.64651 4.77264 2.68843 4.54144 2.80504C4.31025 2.92165 4.12028 3.10728 3.99741 3.33669C3.77092 3.94691 3.67124 4.59759 3.70454 5.24831V13.5204C3.66525 14.1754 3.78037 14.8305 4.04048 15.432C4.16476 15.649 4.34919 15.8246 4.57108 15.9373C4.79298 16.05 5.04268 16.0948 5.28949 16.0663C5.53202 16.1009 5.77919 16.0574 5.99574 15.9419C6.21229 15.8265 6.38717 15.645 6.49543 15.4233C6.70379 14.812 6.79443 14.1661 6.76246 13.5204V11.7826H10.3286V13.2858C10.4336 14.7034 10.0602 16.1151 9.2691 17.2915C8.51108 18.2473 7.20177 18.7165 5.34118 18.7165C3.48059 18.7165 2.02484 18.1952 1.22376 17.1264Z" fill="#111111"/>
<path d="M15.2219 0.252029H19.3048L22.7504 18.4993H19.3565L18.7449 14.4675H15.8851L15.196 18.4732H11.7505L15.2219 0.252029ZM18.3659 12.1736L17.2806 4.83991L16.2039 12.1736H18.3659Z" fill="#111111"/>
<path d="M25.3954 2.99781H22.6045V0.252029H31.8385V2.99781H29.0821V18.4732H25.3868L25.3954 2.99781Z" fill="#111111"/>
<path d="M39.0836 0.252029H46.0867V2.14627H41.6075V8.16786H45.2425V9.96652H41.6075V16.6485H46.1297V18.4732H39.0836V0.252029Z" fill="#444444"/>
<path d="M48.1631 0.252029H49.8859L55.0542 12.356V0.252029H57.156V18.4993H55.5452L50.3769 6.05639V18.4732H48.2406L48.1631 0.252029Z" fill="#444444"/>
<path d="M59.9388 0.252029H66.9333V2.14627H62.4541V8.16786H66.1236V9.96652H62.4885V16.6485H66.985V18.4732H59.9388V0.252029Z" fill="#444444"/>
<path d="M69.0096 0.252028H72.6447C74.0772 0.135747 75.5038 0.539423 76.6673 1.39031C77.5287 2.14627 77.9508 3.38013 77.9508 5.09189C77.9508 7.409 77.2071 8.82534 75.7198 9.3409L78.304 18.4732H75.8576L73.4888 9.92307H71.5335V18.4732H69.0096V0.252028ZM72.4552 8.07228C73.285 8.15327 74.1148 7.91765 74.7809 7.4119C75.0516 7.08874 75.2539 6.71313 75.3754 6.30817C75.4969 5.90322 75.5349 5.47748 75.4872 5.05714C75.5045 4.46763 75.42 3.87958 75.2374 3.3193C75.1634 3.11272 75.049 2.92322 74.901 2.76203C74.7531 2.60084 74.5746 2.47123 74.3761 2.38087C73.8169 2.14945 73.2139 2.04559 72.6102 2.07675H71.499V8.10704L72.4552 8.07228Z" fill="#444444"/>
<path d="M81.3453 17.1264C80.5219 15.7245 80.1404 14.1033 80.2513 12.4777V6.39527C80.2216 5.2215 80.3668 4.04989 80.682 2.9196C80.9308 2.06985 81.4595 1.33114 82.1808 0.825516C83.0517 0.296124 84.0597 0.0419088 85.0751 0.0956256C85.7318 0.0326189 86.3944 0.115059 87.0163 0.337184C87.6382 0.559309 88.2045 0.915759 88.6757 1.38162C89.5021 2.54948 89.8926 3.97447 89.7782 5.40471V6.08246H87.4094V5.51767C87.4256 4.84214 87.3736 4.16671 87.2544 3.50178C87.1759 3.07564 86.9424 2.69445 86.5997 2.43301C86.1526 2.16681 85.6363 2.04266 85.1181 2.07676C84.5555 2.0282 83.9962 2.20275 83.559 2.56335C83.2018 2.90528 82.9683 3.358 82.8958 3.84935C82.7866 4.5651 82.7377 5.28887 82.7493 6.01295V12.7818C82.6809 13.8104 82.8551 14.8407 83.2575 15.7883C83.4913 16.0797 83.788 16.3133 84.1249 16.4714C84.4619 16.6294 84.8302 16.7076 85.2017 16.7001C85.5732 16.6925 85.9381 16.5994 86.2685 16.4278C86.5989 16.2562 86.886 16.0107 87.1079 15.7101C87.523 14.7079 87.7029 13.6224 87.6334 12.5385V11.2525H85.3421V9.45386H89.9074V18.4732H88.3483L88.0985 16.3791C87.9011 17.0748 87.4762 17.6827 86.8928 18.1039C86.3095 18.5251 85.6021 18.7349 84.8856 18.6991C84.2119 18.759 83.5341 18.6463 82.9152 18.3713C82.2963 18.0964 81.7563 17.6682 81.3453 17.1264V17.1264Z" fill="#444444"/>
<path d="M95.1452 12.0432L91.2431 0.252029H93.5861L96.3511 9.04547L99.0731 0.252029H101.442L97.5657 12.0432V18.4732H95.1538L95.1452 12.0432Z" fill="#444444"/>
</svg>
